<svg width="288" height="288" viewBox="0 0 288 288" fill="none" xmlns="http://www.w3.org/2000/svg">
  <path d="M12.3966 190.08H85.2731C90.4696 190.08 95.9166 185.447 95.9166 178.56V146.88C95.9166 135.673 97.3566 127.033 103.117 117.767C109.19 108.563 118.08 98.7339 133.92 97.9199C144.564 97.0434 155.52 97.92 165.287 103.993C178.56 112.07 188.327 125.593 188.327 144C188.327 157.273 181.44 171.047 170.171 179.436C162.971 185.196 153.767 190.393 141.057 190.956H106.497C99.6105 190.956 95.854 195.59 96.1044 201.6V271.847C96.1044 277.294 100.424 281.927 106.748 281.927H145.315C159.715 281.927 175.868 280.174 191.082 274.727C231.715 260.327 274.289 224.327 283.242 167.29C284.369 160.09 284.682 153.767 284.682 146.567C284.995 100.8 262.205 56.9739 229.085 34.2469C207.485 18.9704 182.129 7.45038 149.885 6.01038H106.685C99.1723 6.01038 96.0418 11.2069 96.0418 16.6539C96.0418 29.3008 97.6696 43.0747 95.4157 55.4712C91.3462 78.2608 72.5009 97.5443 48.7722 97.5443H10.9566C6.07312 97.5443 2.62964 102.177 2.62964 107.624V178.748C3.19312 183.944 6.07312 189.955 12.3966 189.955V190.08Z" fill="currentColor"/>
</svg>
